<?xml version="1.0" standalone="no"?>
<!DOCTYPE svg PUBLIC "-//W3C//DTD SVG 1.1//EN" "http://www.w3.org/Graphics/SVG/1.1/DTD/svg11.dtd">
<svg t="1494384870379" class="icon" style="" viewBox="0 0 3638 1024" version="1.1" xmlns="http://www.w3.org/2000/svg" p-id="5589" xmlns:xlink="http://www.w3.org/1999/xlink" width="1421.09375" height="400">
  <defs><style type="text/css"></style></defs>
  <path d="M367.839159 676.939243l-2.152824-0.036489a54.732811 54.732811 0 0 1-52.561743-56.812658c2.919083-75.367081-16.529309-136.156991-57.816093-180.654766-75.038684-80.91334-201.270792-87.681964-202.529647-87.736697a54.732811 54.732811 0 0 1-52.707697-56.684948 54.969987 54.969987 0 0 1 56.684948-52.707698c6.969311 0.25542 172.006982 7.534884 278.808941 122.656231 61.7751 66.609831 91.03891 153.853933 86.933949 259.342305a54.732811 54.732811 0 0 1-54.659834 52.63472zM1048.131516 671.028099c-6.330762 0-12.734501-0.12771-19.211217-0.383129a54.732811 54.732811 0 0 1-52.561743-56.812659c1.185878-30.194268 26.490681-53.382735 56.812658-52.579987 107.440509 3.940762 182.004842-35.083732 228.053381-119.992567 36.780449-67.795709 40.283349-139.805845 40.301594-140.535616 1.295343-30.121291 27.074497-53.802354 56.867391-52.415789a54.64159 54.64159 0 0 1 52.525254 56.575483c-0.25542 6.969311-7.534884 172.006982-122.65623 278.808941-62.523115 58.01678-143.235767 87.335323-240.131088 87.335323zM878.678732 1023.981756a54.605102 54.605102 0 0 1-43.384875-21.327552c-393.565403-510.894306-2.207557-978.823355 1.787938-983.493889a54.714567 54.714567 0 0 1 83.175629 71.170899c-14.321752 16.87595-336.47908 406.464102 1.75145 845.512471a54.732811 54.732811 0 0 1-43.330142 88.138071zM3270.046484 676.939243a54.732811 54.732811 0 0 1-54.659834-52.616476c-4.086717-105.488372 25.177093-192.732473 86.952193-259.342305 106.801959-115.121347 271.821386-122.400811 278.790697-122.65623a54.842277 54.842277 0 0 1 56.684948 52.707697 54.732811 54.732811 0 0 1-52.543499 56.666704c-1.386565 0.054733-73.031815 3.721831-140.499127 40.301594-84.908835 46.048539-124.170505 120.649361-119.992567 228.071625a54.7693 54.7693 0 0 1-54.732811 56.867391zM2589.754127 671.028099c-96.913565 0-177.589729-29.318543-240.112844-87.317078-115.139591-106.783715-122.419055-271.821386-122.674475-278.808942a54.714567 54.714567 0 0 1 109.392646-4.141449c0.054733 1.423053 3.703587 73.050059 40.301593 140.517371 46.048539 84.927079 120.813559 124.462413 228.071626 119.992567 30.230756-0.766259 55.663269 22.38572 56.812658 52.579988s-22.38572 55.645025-52.579988 56.812658a523.610563 523.610563 0 0 1-19.211216 0.364885zM2759.206911 1023.981756a54.7693 54.7693 0 0 1-43.330143-88.138071c338.467706-439.358521 15.617096-829.165604 1.733206-845.548959a54.787544 54.787544 0 0 1 6.166563-77.118531 54.659834 54.659834 0 0 1 77.045555 5.98412c3.995495 4.670533 395.353341 472.599582 1.806182 983.493889a54.714567 54.714567 0 0 1-43.421363 21.327552zM2067.548373 947.720705h-474.351032a54.732811 54.732811 0 1 1 0-109.465623h474.351032a54.732811 54.732811 0 1 1 0 109.465623z" fill="#8a8a8a" p-id="5590">
  </path>
</svg>